<?xml version="1.0" encoding="utf-8"?>
<svg xmlns="http://www.w3.org/2000/svg" version="1.1" width="16" height="16" viewBox="0 0 16 16">
  <style type="text/css">rect { shape-rendering: crispEdges; }</style>
  <rect x="1" y="1" width="1" height="1" fill="#8d8d8d" />
  <rect x="2" y="1" width="1" height="1" fill="#969696" />
  <rect x="3" y="1" width="1" height="1" fill="#959595" />
  <rect x="4" y="1" width="1" height="1" fill="#949494" />
  <rect x="5" y="1" width="1" height="1" fill="#939393" />
  <rect x="6" y="1" width="1" height="1" fill="#939393" />
  <rect x="7" y="1" width="1" height="1" fill="#929292" />
  <rect x="8" y="1" width="1" height="1" fill="#919191" />
  <rect x="9" y="1" width="1" height="1" fill="#919191" />
  <rect x="10" y="1" width="1" height="1" fill="#909090" />
  <rect x="11" y="1" width="1" height="1" fill="#8f8f8f" />
  <rect x="12" y="1" width="1" height="1" fill="#8f8f8f" />
  <rect x="13" y="1" width="1" height="1" fill="#8e8e8e" />
  <rect x="14" y="1" width="1" height="1" fill="#8d8d8d" />
  <rect x="1" y="2" width="1" height="1" fill="#8a8a8a" />
  <rect x="2" y="2" width="1" height="1" fill="#6cc414" />
  <rect x="3" y="2" width="1" height="1" fill="#6cc414" />
  <rect x="4" y="2" width="1" height="1" fill="#6cc414" />
  <rect x="5" y="2" width="1" height="1" fill="#adadb3" />
  <rect x="6" y="2" width="1" height="1" fill="#6cc414" />
  <rect x="7" y="2" width="1" height="1" fill="#6cc414" />
  <rect x="8" y="2" width="1" height="1" fill="#6cc414" />
  <rect x="9" y="2" width="1" height="1" fill="#6cc414" />
  <rect x="10" y="2" width="1" height="1" fill="#a2a2b3" />
  <rect x="11" y="2" width="1" height="1" fill="#6cc414" />
  <rect x="12" y="2" width="1" height="1" fill="#6cc414" />
  <rect x="13" y="2" width="1" height="1" fill="#6cc414" />
  <rect x="14" y="2" width="1" height="1" fill="#8a8a8a" />
  <rect x="1" y="3" width="1" height="1" fill="#878787" />
  <rect x="2" y="3" width="1" height="1" fill="#6cc414" />
  <rect x="3" y="3" width="1" height="1" fill="#6cc414" />
  <rect x="4" y="3" width="1" height="1" fill="#6cc414" />
  <rect x="5" y="3" width="1" height="1" fill="#adadb3" />
  <rect x="6" y="3" width="1" height="1" fill="#6cc414" />
  <rect x="7" y="3" width="1" height="1" fill="#6cc414" />
  <rect x="8" y="3" width="1" height="1" fill="#6cc414" />
  <rect x="9" y="3" width="1" height="1" fill="#6cc414" />
  <rect x="10" y="3" width="1" height="1" fill="#a2a2b3" />
  <rect x="11" y="3" width="1" height="1" fill="#6cc414" />
  <rect x="12" y="3" width="1" height="1" fill="#6cc414" />
  <rect x="13" y="3" width="1" height="1" fill="#6cc414" />
  <rect x="14" y="3" width="1" height="1" fill="#878787" />
  <rect x="1" y="4" width="1" height="1" fill="#858585" />
  <rect x="2" y="4" width="1" height="1" fill="#6cc414" />
  <rect x="3" y="4" width="1" height="1" fill="#6cc414" />
  <rect x="4" y="4" width="1" height="1" fill="#6cc414" />
  <rect x="5" y="4" width="1" height="1" fill="#adadb3" />
  <rect x="6" y="4" width="1" height="1" fill="#6cc414" />
  <rect x="7" y="4" width="1" height="1" fill="#6cc414" />
  <rect x="8" y="4" width="1" height="1" fill="#6cc414" />
  <rect x="9" y="4" width="1" height="1" fill="#6cc414" />
  <rect x="10" y="4" width="1" height="1" fill="#a2a2b3" />
  <rect x="11" y="4" width="1" height="1" fill="#6cc414" />
  <rect x="12" y="4" width="1" height="1" fill="#6cc414" />
  <rect x="13" y="4" width="1" height="1" fill="#6cc414" />
  <rect x="14" y="4" width="1" height="1" fill="#858585" />
  <rect x="1" y="5" width="1" height="1" fill="#828282" />
  <rect x="2" y="5" width="1" height="1" fill="#6cc414" />
  <rect x="3" y="5" width="1" height="1" fill="#6cc414" />
  <rect x="4" y="5" width="1" height="1" fill="#6cc414" />
  <rect x="5" y="5" width="1" height="1" fill="#adadb3" />
  <rect x="6" y="5" width="1" height="1" fill="#6cc414" />
  <rect x="7" y="5" width="1" height="1" fill="#6cc414" />
  <rect x="8" y="5" width="1" height="1" fill="#6cc414" />
  <rect x="9" y="5" width="1" height="1" fill="#6cc414" />
  <rect x="10" y="5" width="1" height="1" fill="#a2a2b3" />
  <rect x="11" y="5" width="1" height="1" fill="#6cc414" />
  <rect x="12" y="5" width="1" height="1" fill="#6cc414" />
  <rect x="13" y="5" width="1" height="1" fill="#6cc414" />
  <rect x="14" y="5" width="1" height="1" fill="#828282" />
  <rect x="1" y="6" width="1" height="1" fill="#7f7f7f" />
  <rect x="2" y="6" width="1" height="1" fill="#adadb3" />
  <rect x="3" y="6" width="1" height="1" fill="#adadb3" />
  <rect x="4" y="6" width="1" height="1" fill="#acacb3" />
  <rect x="5" y="6" width="1" height="1" fill="#adadb3" />
  <rect x="6" y="6" width="1" height="1" fill="#a8a8b3" />
  <rect x="7" y="6" width="1" height="1" fill="#a7a7b3" />
  <rect x="8" y="6" width="1" height="1" fill="#a5a5b3" />
  <rect x="9" y="6" width="1" height="1" fill="#a4a4b3" />
  <rect x="10" y="6" width="1" height="1" fill="#a2a2b3" />
  <rect x="11" y="6" width="1" height="1" fill="#a0a0b3" />
  <rect x="12" y="6" width="1" height="1" fill="#9e9eb3" />
  <rect x="13" y="6" width="1" height="1" fill="#9c9cb3" />
  <rect x="14" y="6" width="1" height="1" fill="#7f7f7f" />
  <rect x="1" y="7" width="1" height="1" fill="#7d7d7d" />
  <rect x="2" y="7" width="1" height="1" fill="#fbfbff" />
  <rect x="3" y="7" width="1" height="1" fill="#fbfbff" />
  <rect x="4" y="7" width="1" height="1" fill="#fbfbff" />
  <rect x="5" y="7" width="1" height="1" fill="#adadb3" />
  <rect x="6" y="7" width="1" height="1" fill="#ededff" />
  <rect x="7" y="7" width="1" height="1" fill="#ededff" />
  <rect x="8" y="7" width="1" height="1" fill="#ededff" />
  <rect x="9" y="7" width="1" height="1" fill="#ededff" />
  <rect x="10" y="7" width="1" height="1" fill="#a2a2b3" />
  <rect x="11" y="7" width="1" height="1" fill="#e2e2ff" />
  <rect x="12" y="7" width="1" height="1" fill="#e2e2ff" />
  <rect x="13" y="7" width="1" height="1" fill="#e2e2ff" />
  <rect x="14" y="7" width="1" height="1" fill="#7d7d7d" />
  <rect x="1" y="8" width="1" height="1" fill="#7a7a7a" />
  <rect x="2" y="8" width="1" height="1" fill="#fbfbff" />
  <rect x="3" y="8" width="1" height="1" fill="#fbfbff" />
  <rect x="4" y="8" width="1" height="1" fill="#fbfbff" />
  <rect x="5" y="8" width="1" height="1" fill="#acacb3" />
  <rect x="6" y="8" width="1" height="1" fill="#ededff" />
  <rect x="7" y="8" width="1" height="1" fill="#ededff" />
  <rect x="8" y="8" width="1" height="1" fill="#ededff" />
  <rect x="9" y="8" width="1" height="1" fill="#ededff" />
  <rect x="10" y="8" width="1" height="1" fill="#a2a2b3" />
  <rect x="11" y="8" width="1" height="1" fill="#e2e2ff" />
  <rect x="12" y="8" width="1" height="1" fill="#e2e2ff" />
  <rect x="13" y="8" width="1" height="1" fill="#e2e2ff" />
  <rect x="14" y="8" width="1" height="1" fill="#7a7a7a" />
  <rect x="1" y="9" width="1" height="1" fill="#777777" />
  <rect x="2" y="9" width="1" height="1" fill="#fbfbff" />
  <rect x="3" y="9" width="1" height="1" fill="#fbfbff" />
  <rect x="4" y="9" width="1" height="1" fill="#fbfbff" />
  <rect x="5" y="9" width="1" height="1" fill="#a2a2b3" />
  <rect x="6" y="9" width="1" height="1" fill="#ededff" />
  <rect x="7" y="9" width="1" height="1" fill="#ededff" />
  <rect x="8" y="9" width="1" height="1" fill="#ededff" />
  <rect x="9" y="9" width="1" height="1" fill="#ededff" />
  <rect x="10" y="9" width="1" height="1" fill="#a2a2b3" />
  <rect x="11" y="9" width="1" height="1" fill="#e2e2ff" />
  <rect x="12" y="9" width="1" height="1" fill="#e2e2ff" />
  <rect x="13" y="9" width="1" height="1" fill="#e2e2ff" />
  <rect x="14" y="9" width="1" height="1" fill="#777777" />
  <rect x="1" y="10" width="1" height="1" fill="#747474" />
  <rect x="2" y="10" width="1" height="1" fill="#adadb3" />
  <rect x="3" y="10" width="1" height="1" fill="#adadb3" />
  <rect x="4" y="10" width="1" height="1" fill="#acacb3" />
  <rect x="5" y="10" width="1" height="1" fill="#a2a2b3" />
  <rect x="6" y="10" width="1" height="1" fill="#a8a8b3" />
  <rect x="7" y="10" width="1" height="1" fill="#a7a7b3" />
  <rect x="8" y="10" width="1" height="1" fill="#a5a5b3" />
  <rect x="9" y="10" width="1" height="1" fill="#a4a4b3" />
  <rect x="10" y="10" width="1" height="1" fill="#a2a2b3" />
  <rect x="11" y="10" width="1" height="1" fill="#a0a0b3" />
  <rect x="12" y="10" width="1" height="1" fill="#9e9eb3" />
  <rect x="13" y="10" width="1" height="1" fill="#9c9cb3" />
  <rect x="14" y="10" width="1" height="1" fill="#747474" />
  <rect x="1" y="11" width="1" height="1" fill="#717171" />
  <rect x="2" y="11" width="1" height="1" fill="#e2e2ff" />
  <rect x="3" y="11" width="1" height="1" fill="#e2e2ff" />
  <rect x="4" y="11" width="1" height="1" fill="#e2e2ff" />
  <rect x="5" y="11" width="1" height="1" fill="#a2a2b3" />
  <rect x="6" y="11" width="1" height="1" fill="#dcdcff" />
  <rect x="7" y="11" width="1" height="1" fill="#dcdcff" />
  <rect x="8" y="11" width="1" height="1" fill="#dcdcff" />
  <rect x="9" y="11" width="1" height="1" fill="#dcdcff" />
  <rect x="10" y="11" width="1" height="1" fill="#9a9ab3" />
  <rect x="11" y="11" width="1" height="1" fill="#d7d7ff" />
  <rect x="12" y="11" width="1" height="1" fill="#d7d7ff" />
  <rect x="13" y="11" width="1" height="1" fill="#d7d7ff" />
  <rect x="14" y="11" width="1" height="1" fill="#717171" />
  <rect x="1" y="12" width="1" height="1" fill="#6e6e6e" />
  <rect x="2" y="12" width="1" height="1" fill="#e2e2ff" />
  <rect x="3" y="12" width="1" height="1" fill="#e2e2ff" />
  <rect x="4" y="12" width="1" height="1" fill="#e2e2ff" />
  <rect x="5" y="12" width="1" height="1" fill="#a2a2b3" />
  <rect x="6" y="12" width="1" height="1" fill="#dcdcff" />
  <rect x="7" y="12" width="1" height="1" fill="#dcdcff" />
  <rect x="8" y="12" width="1" height="1" fill="#dcdcff" />
  <rect x="9" y="12" width="1" height="1" fill="#dcdcff" />
  <rect x="10" y="12" width="1" height="1" fill="#9999b3" />
  <rect x="11" y="12" width="1" height="1" fill="#d7d7ff" />
  <rect x="12" y="12" width="1" height="1" fill="#d7d7ff" />
  <rect x="13" y="12" width="1" height="1" fill="#d7d7ff" />
  <rect x="14" y="12" width="1" height="1" fill="#6e6e6e" />
  <rect x="1" y="13" width="1" height="1" fill="#6b6b6b" />
  <rect x="2" y="13" width="1" height="1" fill="#e2e2ff" />
  <rect x="3" y="13" width="1" height="1" fill="#e2e2ff" />
  <rect x="4" y="13" width="1" height="1" fill="#e2e2ff" />
  <rect x="5" y="13" width="1" height="1" fill="#a2a2b3" />
  <rect x="6" y="13" width="1" height="1" fill="#dcdcff" />
  <rect x="7" y="13" width="1" height="1" fill="#dcdcff" />
  <rect x="8" y="13" width="1" height="1" fill="#dcdcff" />
  <rect x="9" y="13" width="1" height="1" fill="#dcdcff" />
  <rect x="10" y="13" width="1" height="1" fill="#9898b3" />
  <rect x="11" y="13" width="1" height="1" fill="#d7d7ff" />
  <rect x="12" y="13" width="1" height="1" fill="#d7d7ff" />
  <rect x="13" y="13" width="1" height="1" fill="#d7d7ff" />
  <rect x="14" y="13" width="1" height="1" fill="#6b6b6b" />
  <rect x="1" y="14" width="1" height="1" fill="#686868" />
  <rect x="2" y="14" width="1" height="1" fill="#696969" />
  <rect x="3" y="14" width="1" height="1" fill="#696969" />
  <rect x="4" y="14" width="1" height="1" fill="#686868" />
  <rect x="5" y="14" width="1" height="1" fill="#6a6a6a" />
  <rect x="6" y="14" width="1" height="1" fill="#696969" />
  <rect x="7" y="14" width="1" height="1" fill="#696969" />
  <rect x="8" y="14" width="1" height="1" fill="#686868" />
  <rect x="9" y="14" width="1" height="1" fill="#6c6c6c" />
  <rect x="10" y="14" width="1" height="1" fill="#6b6b6b" />
  <rect x="11" y="14" width="1" height="1" fill="#6a6a6a" />
  <rect x="12" y="14" width="1" height="1" fill="#696969" />
  <rect x="13" y="14" width="1" height="1" fill="#696969" />
  <rect x="14" y="14" width="1" height="1" fill="#686868" />
</svg>